<?xml version="1.0" encoding="utf-8"?><!DOCTYPE svg PUBLIC "-//W3C//DTD SVG 1.1//EN" "http://www.w3.org/Graphics/SVG/1.1/DTD/svg11.dtd"><svg version="1.1" xmlns="http://www.w3.org/2000/svg" width="1344" height="128" viewBox="0 0 1344 128"><g transform="scale(0.125,0.125)"><g><rect fill="#D1D5DA" width="10752" height="1024" /></g><g transform="translate(0,0)"><g transform="scale(1,-1) translate(0,-820)"><path stroke="none" fill="#000000" d="M440 628V596Q426 594 405 593Q384 592 356 593Q328 594 307 595Q286 596 272 596V508Q286 508 306 508Q326 508 352 509Q378 510 398 512Q418 514 432 516Q424 498 407 475Q390 452 361 432Q332 412 309 405Q286 398 272 396Q276 390 282 380Q288 370 295 356Q302 342 306 332Q310 322 312 316Q328 320 354 331Q380 342 413 367Q446 392 466 417Q486 442 496 460Q504 446 519 424Q534 402 559 376Q584 350 605 336Q626 322 640 316Q648 322 659 331Q670 340 683 352Q696 364 705 373Q714 382 720 388Q706 392 682 401Q658 410 626 431Q594 452 574 475Q554 498 544 516Q558 516 579 515Q600 514 628 512Q656 510 677 509Q698 508 712 508V596Q698 596 676 595Q654 594 624 593Q594 592 572 593Q550 594 536 596Q536 600 535 607Q534 614 535 625Q536 636 541 645Q546 654 552 660Q542 660 527 661Q512 662 492 663Q472 664 457 663Q442 662 432 660L440 636V628V628ZM248 308Q248 338 248 384Q248 430 248 492Q248 554 248 600Q248 646 248 676Q288 676 348 676Q408 676 489 676Q570 676 632 676Q694 676 736 676V508V308Q694 308 632 308Q570 308 489 308Q408 308 348 308Q288 308 248 308V308V308ZM248 188V220Q288 220 348 221Q408 222 489 223Q570 224 632 223Q694 222 736 220V196H840Q838 244 835 316Q832 388 830 483Q828 578 829 648Q830 718 832 764Q774 762 688 761Q602 760 489 761Q376 762 292 763Q208 764 152 764L160 556Q160 524 159 477Q158 430 155 369Q152 308 149 263Q146 218 144 188H248V188ZM32 -76Q40 -80 53 -86Q66 -92 85 -99Q104 -106 119 -110Q134 -114 144 -116Q152 -98 163 -71Q174 -44 186 -8Q198 28 205 55Q212 82 216 100Q206 104 192 109Q178 114 161 119Q144 124 132 127Q120 130 112 132Q110 114 106 87Q102 60 90 25Q78 -10 62 -35Q46 -60 32 -76V-76V-76ZM592 -36Q574 -38 547 -41Q520 -44 485 -45Q450 -46 425 -43Q400 -40 384 -36Q378 -20 372 4Q366 28 365 60Q364 92 368 116Q372 140 376 156Q368 160 356 163Q344 166 327 166Q310 166 296 165Q282 164 272 164L264 156Q264 152 265 145Q266 138 268 128Q270 118 271 111Q272 104 272 100Q272 90 272 74Q272 58 272 36Q272 14 272 -2Q272 -18 272 -28Q272 -34 272 -44Q272 -54 273 -68Q274 -82 276 -92Q278 -102 280 -108Q284 -110 289 -113Q294 -116 299 -119Q304 -122 307 -123Q310 -124 312 -124Q342 -130 386 -136Q430 -142 487 -141Q544 -140 586 -132Q628 -124 656 -116L704 -68Q708 -60 712 -47Q716 -34 719 -15Q722 4 724 19Q726 34 728 44L632 76Q632 66 633 52Q634 38 630 20Q626 2 615 -12Q604 -26 592 -36V-36V-36ZM504 204L440 164Q448 152 459 135Q470 118 482 96Q494 74 501 57Q508 40 512 28L600 92Q594 100 584 113Q574 126 558 145Q542 164 528 179Q514 194 504 204V204V204ZM824 180L744 132Q758 114 774 88Q790 62 804 28Q818 -6 826 -32Q834 -58 840 -76L960 -20Q950 -4 936 20Q922 44 901 77Q880 110 860 136Q840 162 824 180V180V180V181V180Z" /></g></g><g transform="translate(1024,0)"><g transform="scale(1,-1) translate(0,-820)"><path stroke="none" fill="#000000" d="M64 548Q66 530 65 503Q64 476 57 440Q50 404 43 377Q36 350 32 332Q40 330 51 327Q62 324 76 320Q90 316 101 313Q112 310 120 308Q126 328 132 358Q138 388 140 428Q142 468 140 498Q138 528 136 548H64V548ZM168 748Q170 740 173 727Q176 714 179 696Q182 678 183 665Q184 652 184 644Q184 638 184 629Q184 620 184 607Q184 594 184 583Q184 572 184 564V444Q184 442 184 438Q184 434 184 427Q184 420 184 414Q184 408 184 404V212Q184 184 183 142Q182 100 179 43Q176 -14 173 -58Q170 -102 168 -132H280Q274 -78 269 3Q264 84 262 191Q260 298 259 377Q258 456 256 508V604Q256 616 256 634Q256 652 259 676Q262 700 268 718Q274 736 280 748Q270 752 256 755Q242 758 224 757Q206 756 192 753Q178 750 168 748V748V748ZM336 556L280 532Q286 524 294 512Q302 500 311 484Q320 468 326 456Q332 444 336 436Q340 438 347 441Q354 444 365 449Q376 454 385 459Q394 464 400 468Q396 474 390 484Q384 494 374 509Q364 524 354 536Q344 548 336 556V556V556ZM632 692Q612 692 583 693Q554 694 517 697Q480 700 453 703Q426 706 408 708V604Q418 606 434 608Q450 610 473 611Q496 612 514 612Q532 612 544 612H632V548Q616 548 592 549Q568 550 536 552Q504 554 480 555Q456 556 440 556V468Q456 468 480 469Q504 470 536 472Q568 474 592 475Q616 476 632 476V404H528Q510 404 484 405Q458 406 425 409Q392 412 368 415Q344 418 328 420V324Q342 326 363 328Q384 330 412 331Q440 332 461 332Q482 332 496 332H656Q658 332 662 332Q666 332 673 332Q680 332 686 332Q692 332 696 332H768Q786 332 812 332Q838 332 872 331Q906 330 932 328Q958 326 976 324V420Q962 418 941 415Q920 412 891 409Q862 406 839 405Q816 404 800 404H720V476Q734 476 755 475Q776 474 804 472Q832 470 853 469Q874 468 888 468V556Q874 556 853 555Q832 554 804 552Q776 550 755 549Q734 548 720 548V612Q738 614 765 615Q792 616 829 614Q866 612 895 609Q924 606 944 604V708Q924 706 895 703Q866 700 829 697Q792 694 765 693Q738 692 720 692Q720 700 719 711Q718 722 718 736Q718 750 721 761Q724 772 728 780Q720 782 707 784Q694 786 676 786Q658 786 645 784Q632 782 624 780Q626 776 628 771Q630 766 631 761Q632 756 632 753Q632 750 632 748Q632 742 632 734Q632 726 632 717Q632 708 632 702Q632 696 632 692V692V692ZM560 116Q560 124 560 136Q560 148 560 164Q560 180 560 192Q560 204 560 212H648V172V116H560V116ZM728 116Q728 124 728 136Q728 148 728 164Q728 180 728 192Q728 204 728 212H808Q808 204 808 192Q808 180 808 164Q808 148 808 136Q808 124 808 116H728V116ZM888 284Q854 284 803 284Q752 284 683 284Q614 284 561 284Q508 284 472 284V148Q472 124 472 89Q472 54 471 9Q470 -36 468 -69Q466 -102 464 -124H568Q566 -110 564 -90Q562 -70 561 -44Q560 -18 560 2Q560 22 560 36Q580 36 611 36Q642 36 684 36Q726 36 757 36Q788 36 808 36Q808 28 808 17Q808 6 808 -8Q808 -22 808 -33Q808 -44 808 -52Q800 -56 788 -59Q776 -62 760 -62Q744 -62 732 -61Q720 -60 712 -60Q714 -68 718 -79Q722 -90 728 -104Q734 -118 738 -129Q742 -140 744 -148Q756 -146 774 -144Q792 -142 815 -135Q838 -128 854 -116Q870 -104 880 -92Q884 -72 887 -42Q890 -12 890 27Q890 66 889 94Q888 122 888 140V284V284V285V284Z" /></g></g><g transform="translate(2048,0)"><g transform="scale(1,-1) translate(0,-820)"><path stroke="none" fill="#000000" d="M424 284V348Q456 348 504 348Q552 348 616 348Q680 348 728 348Q776 348 808 348V284Q776 284 728 284Q680 284 616 284Q552 284 504 284Q456 284 424 284V284V284ZM984 524Q920 520 825 517Q730 514 604 515Q478 516 383 519Q288 522 224 524V436Q288 438 383 439Q478 440 604 439Q730 438 825 437Q920 436 984 436V524V524ZM384 612V692H480V612H384V612ZM560 612V692H648V612H560V612ZM736 612V692H824V612H736V612ZM904 756Q854 754 779 752Q704 750 603 750Q502 750 425 752Q348 754 296 756L304 652L296 548Q348 550 425 552Q502 554 603 554Q704 554 779 552Q854 550 904 548Q904 566 904 593Q904 620 904 655Q904 690 904 715Q904 740 904 756V756V756ZM136 788L80 716Q90 714 104 709Q118 704 135 694Q152 684 164 675Q176 666 184 660Q188 664 194 671Q200 678 209 689Q218 700 226 709Q234 718 240 724Q232 730 219 740Q206 750 188 762Q170 774 157 780Q144 786 136 788V788V788ZM80 580L32 508Q40 504 52 497Q64 490 81 478Q98 466 112 455Q126 444 136 436Q140 442 147 451Q154 460 164 472Q174 484 181 493Q188 502 192 508Q182 516 168 527Q154 538 136 550Q118 562 104 569Q90 576 80 580V580V580ZM736 156Q728 160 717 167Q706 174 692 185Q678 196 667 205Q656 214 648 220H816Q810 212 800 201Q790 190 776 179Q762 168 752 163Q742 158 736 156V156V156ZM136 348Q126 348 112 348Q98 348 80 348Q62 348 48 348Q34 348 24 348V244Q32 246 44 248Q56 250 72 251Q88 252 100 252Q112 252 120 252Q122 236 124 212Q126 188 128 156Q130 124 132 100Q134 76 136 60Q128 52 115 43Q102 34 84 26Q66 18 53 13Q40 8 32 4Q36 -6 40 -20Q44 -34 51 -52Q58 -70 68 -84Q78 -98 88 -108Q96 -100 108 -87Q120 -74 136 -58Q152 -42 164 -33Q176 -24 184 -20Q196 -34 214 -51Q232 -68 255 -82Q278 -96 294 -101Q310 -106 320 -108Q374 -120 455 -129Q536 -138 643 -138Q750 -138 829 -135Q908 -132 960 -132Q962 -122 965 -106Q968 -90 973 -68Q978 -46 983 -30Q988 -14 992 -4Q954 -14 898 -25Q842 -36 769 -43Q696 -50 642 -51Q588 -52 552 -52Q526 -50 487 -50Q448 -50 396 -44Q344 -38 305 -22Q266 -6 240 12Q232 28 226 52Q220 76 220 108Q220 140 222 164Q224 188 224 204V348H136V348ZM896 412Q850 410 780 408Q710 406 616 406Q522 406 452 408Q382 410 336 412V300V212Q348 212 366 213Q384 214 407 216Q430 218 446 219Q462 220 472 220Q472 218 471 216Q470 214 467 212Q464 210 461 208Q458 206 456 204Q440 190 415 173Q390 156 355 140Q320 124 293 115Q266 106 248 100Q254 94 262 85Q270 76 279 63Q288 50 294 39Q300 28 304 20Q322 28 350 41Q378 54 417 76Q456 98 486 119Q516 140 536 156Q536 142 536 120Q536 98 536 68Q536 38 536 16Q536 -6 536 -20H632Q630 -6 627 15Q624 36 621 65Q618 94 617 117Q616 140 616 156Q640 136 676 109Q712 82 759 54Q806 26 840 11Q874 -4 896 -12Q902 -6 910 4Q918 14 928 29Q938 44 946 56Q954 68 960 76Q946 78 925 82Q904 86 876 94Q848 102 827 110Q806 118 792 124Q800 128 813 134Q826 140 844 146Q862 152 875 154Q888 156 896 156Q894 160 890 167Q886 174 879 185Q872 196 866 205Q860 214 856 220L896 212Q896 228 896 253Q896 278 896 312Q896 346 896 371Q896 396 896 412V412V412V413V412Z" /></g></g><g transform="translate(3072,0)"><g transform="scale(1,-1) translate(0,-820)"><path stroke="none" fill="#000000" d="M664 508Q658 504 649 498Q640 492 628 483Q616 474 607 466Q598 458 592 452Q622 426 664 384Q706 342 753 283Q800 224 828 180Q856 136 872 108Q882 112 896 119Q910 126 927 137Q944 148 956 157Q968 166 976 172Q956 200 922 244Q888 288 835 346Q782 404 738 444Q694 484 664 508V508V508ZM936 740Q862 738 752 736Q642 734 496 734Q350 734 240 736Q130 738 56 740V620Q88 620 136 621Q184 622 249 624Q314 626 364 627Q414 628 448 628Q426 590 381 530Q336 470 260 397Q184 324 123 282Q62 240 24 220Q32 214 43 205Q54 196 68 184Q82 172 93 163Q104 154 112 148Q138 164 180 192Q222 220 279 267Q336 314 376 356Q416 398 440 428Q440 424 440 419Q440 414 440 409Q440 404 440 401Q440 398 440 396V372Q440 334 439 276Q438 218 435 140Q432 62 429 4Q426 -54 424 -92H552Q552 -78 551 -57Q550 -36 548 -9Q546 18 545 37Q544 56 544 68Q544 102 541 153Q538 204 536 272Q534 340 539 391Q544 442 552 476Q548 480 541 484Q534 488 523 491Q512 494 503 496Q494 498 488 500Q496 512 507 529Q518 546 531 567Q544 588 553 603Q562 618 568 628Q598 628 644 628Q690 628 752 627Q814 626 860 624Q906 622 936 620V740V740V741V740Z" /></g></g><g transform="translate(4096,0)"><g transform="scale(1,-1) translate(0,-820)"><path stroke="none" fill="#000000" d="M712 524Q676 520 621 517Q566 514 491 515Q416 516 359 519Q302 522 264 524V420Q302 424 359 428Q416 432 491 432Q566 432 621 428Q676 424 712 420V524V524ZM312 676Q292 676 263 676Q234 676 197 676Q160 676 133 676Q106 676 88 676V580Q88 566 87 545Q86 524 84 497Q82 470 81 451Q80 432 80 420H192Q190 434 188 455Q186 476 185 505Q184 534 184 557Q184 580 184 596Q236 596 314 596Q392 596 496 596Q600 596 678 596Q756 596 808 596Q808 582 808 561Q808 540 807 513Q806 486 804 467Q802 448 800 436H920Q918 456 915 486Q912 516 909 556Q906 596 905 626Q904 656 904 676Q888 676 863 676Q838 676 803 676Q768 676 741 676Q714 676 696 676H560Q560 684 561 696Q562 708 567 724Q572 740 579 752Q586 764 592 772Q580 778 562 782Q544 786 520 784Q496 782 478 778Q460 774 448 772Q448 768 448 761Q448 754 448 744Q448 734 448 727Q448 720 448 716V676H312V676ZM944 356Q870 352 759 348Q648 344 500 344Q352 344 241 348Q130 352 56 356V244Q74 246 101 249Q128 252 164 255Q200 258 227 259Q254 260 272 260H360Q360 254 360 244Q360 234 359 220Q358 206 356 196Q354 186 352 180Q346 150 320 110Q294 70 239 30Q184 -10 140 -30Q96 -50 72 -60Q80 -66 91 -75Q102 -84 114 -97Q126 -110 133 -121Q140 -132 144 -140Q164 -126 194 -109Q224 -92 264 -67Q304 -42 334 -15Q364 12 384 36Q396 54 410 82Q424 110 435 148Q446 186 450 214Q454 242 456 260H536V100Q536 86 536 66Q536 46 536 21Q536 -4 536 -22Q536 -40 536 -52L552 -100Q556 -102 561 -105Q566 -108 572 -111Q578 -114 583 -115Q588 -116 592 -116Q616 -118 652 -121Q688 -124 736 -125Q784 -126 820 -123Q856 -120 880 -116Q894 -102 909 -82Q924 -62 938 -36Q952 -10 963 10Q974 30 984 44Q976 46 964 49Q952 52 936 58Q920 64 908 71Q896 78 888 84Q884 76 878 64Q872 52 862 36Q852 20 842 8Q832 -4 824 -12Q808 -22 784 -30Q760 -38 728 -37Q696 -36 672 -30Q648 -24 632 -20Q630 -10 629 5Q628 20 628 41Q628 62 627 79Q626 96 624 108V260Q652 260 693 259Q734 258 787 255Q840 252 879 249Q918 246 944 244V356V356V357V356Z" /></g></g><g transform="translate(5120,0)"><g transform="scale(1,-1) translate(0,-820)"><path stroke="none" fill="#000000" d="" /></g></g><g transform="translate(5632,0)"><g transform="scale(1,-1) translate(0,-820)"><path stroke="none" fill="#000000" d="M616 604V668Q632 668 655 668Q678 668 708 668Q738 668 761 668Q784 668 800 668V604Q784 604 761 604Q738 604 708 604Q678 604 655 604Q632 604 616 604V604V604ZM616 460V524Q632 524 655 524Q678 524 708 524Q738 524 761 524Q784 524 800 524V460Q784 460 761 460Q738 460 708 460Q678 460 655 460Q632 460 616 460V460V460ZM616 332V388Q632 388 655 388Q678 388 708 388Q738 388 761 388Q784 388 800 388V332Q784 332 761 332Q738 332 708 332Q678 332 655 332Q632 332 616 332V332V332ZM264 644Q250 644 229 644Q208 644 180 644Q152 644 131 644Q110 644 96 644V556Q108 556 126 556Q144 556 168 556Q192 556 210 556Q228 556 240 556Q238 556 235 555Q232 554 229 551Q226 548 225 545Q224 542 224 540Q214 522 196 496Q178 470 148 436Q118 402 92 376Q66 350 48 332Q52 328 59 321Q66 314 77 304Q88 294 97 287Q106 280 112 276Q126 288 146 307Q166 326 190 353Q214 380 230 401Q246 422 256 436Q256 416 256 387Q256 358 255 320Q254 282 252 253Q250 224 248 204H352Q350 224 348 254Q346 284 345 324Q344 364 344 394Q344 424 344 444Q350 434 361 420Q372 406 389 389Q406 372 419 360Q432 348 440 340Q446 346 455 355Q464 364 476 375Q488 386 497 393Q506 400 512 404Q498 416 478 434Q458 452 434 477Q410 502 394 522Q378 542 368 556Q380 556 397 556Q414 556 436 556Q458 556 475 556Q492 556 504 556V644Q490 644 470 644Q450 644 424 644Q398 644 378 644Q358 644 344 644Q346 654 345 670Q344 686 344 708Q344 730 351 746Q358 762 368 772Q358 780 343 788Q328 796 308 799Q288 802 273 800Q258 798 248 796Q250 790 252 782Q254 774 256 764Q258 754 260 746Q262 738 264 732Q264 724 264 712Q264 700 264 685Q264 670 264 660Q264 650 264 644V644V644ZM176 164Q172 146 165 118Q158 90 143 52Q128 14 111 -14Q94 -42 80 -60Q88 -62 100 -66Q112 -70 128 -77Q144 -84 156 -90Q168 -96 176 -100Q188 -80 201 -51Q214 -22 228 16Q242 54 255 83Q268 112 280 132Q270 134 256 139Q242 144 225 151Q208 158 196 161Q184 164 176 164V164V164ZM312 180Q314 174 316 166Q318 158 319 148Q320 138 320 130Q320 122 320 116Q320 102 320 82Q320 62 320 36Q320 10 320 -10Q320 -30 320 -44Q324 -52 330 -64Q336 -76 346 -90Q356 -104 366 -112Q376 -120 384 -124Q392 -124 405 -125Q418 -126 436 -128Q454 -130 467 -131Q480 -132 488 -132Q506 -130 533 -131Q560 -132 596 -129Q632 -126 659 -113Q686 -100 704 -84Q708 -74 714 -59Q720 -44 728 -23Q736 -2 742 15Q748 32 752 44Q744 46 732 49Q720 52 704 57Q688 62 676 67Q664 72 656 76Q654 66 652 51Q650 36 643 16Q636 -4 624 -19Q612 -34 600 -44Q586 -46 564 -48Q542 -50 512 -50Q482 -50 460 -48Q438 -46 424 -44Q424 -42 423 -39Q422 -36 419 -31Q416 -26 413 -21Q410 -16 408 -12Q408 2 405 23Q402 44 401 72Q400 100 407 121Q414 142 424 156Q414 162 400 169Q386 176 368 180Q350 184 336 183Q322 182 312 180V180V180ZM504 252L440 204Q448 192 459 175Q470 158 481 136Q492 114 497 97Q502 80 504 68Q512 72 524 78Q536 84 552 93Q568 102 580 110Q592 118 600 124Q596 132 590 143Q584 154 575 168Q566 182 558 193Q550 204 544 212H624L616 252Q632 254 655 256Q678 258 708 258Q738 258 761 256Q784 254 800 252V228H888Q886 258 884 303Q882 348 880 408Q878 468 876 513Q874 558 872 588V756Q844 756 802 756Q760 756 704 756Q648 756 606 756Q564 756 536 756Q536 748 536 736Q536 724 536 708Q536 692 536 680Q536 668 536 660V412Q536 398 535 377Q534 356 532 328Q530 300 529 279Q528 258 528 244L504 252V252ZM808 196L736 140Q750 122 770 96Q790 70 814 36Q838 2 854 -24Q870 -50 880 -68Q888 -64 900 -58Q912 -52 928 -42Q944 -32 956 -22Q968 -12 976 -4Q964 12 945 37Q926 62 898 96Q870 130 847 155Q824 180 808 196V196V196V197V196Z" /></g></g><g transform="translate(6656,0)"><g transform="scale(1,-1) translate(0,-820)"><path stroke="none" fill="#000000" d="M128 324Q128 348 128 384Q128 420 128 468Q128 516 128 552Q128 588 128 612H224Q224 588 224 552Q224 516 224 468Q224 420 224 384Q224 348 224 324H128V324ZM312 700Q290 700 256 700Q222 700 176 700Q130 700 96 700Q62 700 40 700L48 460L40 124H136V220H216V172H312Q310 216 308 282Q306 348 306 436Q306 524 308 590Q310 656 312 700V700V700ZM912 652Q880 648 832 644Q784 640 720 639Q656 638 608 640Q560 642 528 644Q532 652 537 666Q542 680 551 699Q560 718 571 730Q582 742 592 748Q582 756 567 766Q552 776 532 785Q512 794 497 798Q482 802 472 804Q468 778 458 738Q448 698 423 644Q398 590 370 550Q342 510 320 484Q326 480 335 474Q344 468 356 458Q368 448 377 438Q386 428 392 420Q400 430 412 446Q424 462 440 485Q456 508 468 526Q480 544 488 556Q522 556 574 556Q626 556 697 555Q768 554 822 552Q876 550 912 548V652V652ZM712 428Q684 416 641 407Q598 398 540 398Q482 398 439 401Q396 404 368 404V308Q382 308 404 308Q426 308 457 309Q488 310 512 312Q536 314 552 316Q524 292 486 255Q448 218 412 168Q376 118 362 81Q348 44 344 20L368 -60Q372 -64 377 -69Q382 -74 388 -80Q394 -86 399 -91Q404 -96 408 -100Q424 -108 449 -115Q474 -122 508 -125Q542 -128 567 -129Q592 -130 608 -132H696Q716 -130 745 -130Q774 -130 811 -126Q848 -122 875 -110Q902 -98 920 -84Q930 -66 941 -38Q952 -10 960 28Q968 66 971 94Q974 122 976 140Q968 142 956 146Q944 150 928 157Q912 164 900 170Q888 176 880 180Q880 178 880 174Q880 170 880 163Q880 156 880 150Q880 144 880 140Q878 128 877 109Q876 90 870 63Q864 36 851 15Q838 -6 824 -20Q822 -20 819 -21Q816 -22 811 -24Q806 -26 801 -27Q796 -28 792 -28Q764 -32 722 -38Q680 -44 625 -45Q570 -46 530 -38Q490 -30 464 -20L440 36Q450 70 481 121Q512 172 574 229Q636 286 687 315Q738 344 768 356L712 428V428V429V428Z" /></g></g><g transform="translate(7680,0)"><g transform="scale(1,-1) translate(0,-820)"><path stroke="none" fill="#000000" d="M472 444V484H624V444H472V444ZM384 156V196H512V156H384V156ZM384 52V92H512V52H384V52ZM608 156V196H744V156H608V156ZM608 52V92H744V52H608V52ZM456 724Q426 722 382 722Q338 722 281 725Q224 728 182 730Q140 732 112 732Q114 712 116 681Q118 650 119 608Q120 566 120 535Q120 504 120 484Q120 466 120 440Q120 414 119 380Q118 346 116 320Q114 294 112 276Q108 248 103 206Q98 164 85 108Q72 52 53 10Q34 -32 16 -60Q24 -64 35 -70Q46 -76 59 -85Q72 -94 81 -102Q90 -110 96 -116Q124 -52 151 44Q178 140 190 267Q202 394 201 488Q200 582 200 644Q264 646 360 647Q456 648 583 646Q710 644 804 641Q898 638 960 636V732Q940 732 910 731Q880 730 839 728Q798 726 766 725Q734 724 712 724H560Q560 730 559 739Q558 748 558 760Q558 772 561 781Q564 790 568 796Q558 802 543 808Q528 814 508 816Q488 818 473 816Q458 814 448 812Q448 808 448 803Q448 798 449 793Q450 788 452 785Q454 782 456 780Q456 774 456 766Q456 758 456 749Q456 740 456 734Q456 728 456 724V724V724ZM720 -20L664 -76Q686 -88 719 -103Q752 -118 796 -131Q840 -144 873 -149Q906 -154 928 -156Q932 -150 938 -141Q944 -132 953 -120Q962 -108 970 -99Q978 -90 984 -84Q962 -82 929 -78Q896 -74 852 -64Q808 -54 775 -42Q742 -30 720 -20V-20V-20ZM384 548Q372 548 353 549Q334 550 308 552Q282 554 263 555Q244 556 232 556V476Q244 478 263 480Q282 482 308 483Q334 484 353 484Q372 484 384 484V372H472V388H624V372H712V484Q732 484 761 484Q790 484 827 483Q864 482 891 480Q918 478 936 476V556Q926 556 910 555Q894 554 872 552Q850 550 834 549Q818 548 808 548H712Q712 554 712 562Q712 570 713 579Q714 588 716 594Q718 600 720 604Q712 606 700 608Q688 610 672 610Q656 610 644 608Q632 606 624 604Q624 602 624 598Q624 594 624 588Q624 582 624 578Q624 574 624 572V548H472Q472 554 472 562Q472 570 473 579Q474 588 476 594Q478 600 480 604Q472 608 460 611Q448 614 432 613Q416 612 404 609Q392 606 384 604V588Q384 586 384 582Q384 578 384 571Q384 564 384 558Q384 552 384 548V548V548ZM960 364Q900 362 809 360Q718 358 595 358Q472 358 379 360Q286 362 224 364V284Q248 284 284 285Q320 286 368 288Q416 290 452 291Q488 292 512 292V252Q494 252 466 252Q438 252 400 253Q362 254 334 256Q306 258 288 260V108V-12Q298 -12 313 -12Q328 -12 348 -12Q368 -12 383 -12Q398 -12 408 -12Q388 -22 358 -35Q328 -48 288 -61Q248 -74 218 -81Q188 -88 168 -92Q176 -98 186 -107Q196 -116 206 -128Q216 -140 222 -149Q228 -158 232 -164Q252 -162 283 -154Q314 -146 357 -130Q400 -114 433 -102Q466 -90 488 -84Q486 -78 481 -69Q476 -60 466 -48Q456 -36 447 -27Q438 -18 432 -12H600Q620 -12 650 -12Q680 -12 720 -12Q760 -12 790 -12Q820 -12 840 -12Q840 10 840 43Q840 76 840 121Q840 166 840 201Q840 236 840 260Q822 260 794 259Q766 258 727 256Q688 254 658 253Q628 252 608 252V292Q638 292 683 291Q728 290 787 288Q846 286 889 285Q932 284 960 284V364V364V365V364Z" /></g></g><g transform="translate(8704,0)"><g transform="scale(1,-1) translate(0,-820)"><path stroke="none" fill="#000000" d="M272 396L264 468Q280 468 304 468Q328 468 360 468Q392 468 416 468Q440 468 456 468V396Q440 396 416 396Q392 396 361 396Q330 396 308 396Q286 396 272 396V396V396ZM272 252V324Q280 324 292 324Q304 324 321 324Q338 324 352 324Q366 324 376 324H456V244Q440 244 417 244Q394 244 364 245Q334 246 311 248Q288 250 272 252V252V252ZM544 396V468Q558 468 579 468Q600 468 629 468Q658 468 681 468Q704 468 720 468L712 396Q698 396 677 396Q656 396 628 396Q600 396 579 396Q558 396 544 396V396V396ZM544 244V324Q558 324 579 324Q600 324 629 324Q658 324 681 324Q704 324 720 324L712 244Q698 244 677 244Q656 244 628 244Q600 244 579 244Q558 244 544 244V244V244ZM344 684Q320 684 284 684Q248 684 201 686Q154 688 120 692Q86 696 64 700V588Q90 590 128 592Q166 594 216 596Q266 598 304 600Q342 602 368 604H456V548Q448 548 436 548Q424 548 408 548Q392 548 380 548Q368 548 360 548H280Q272 548 260 548Q248 548 232 548Q216 548 204 548Q192 548 184 548V460Q184 436 184 400Q184 364 184 316Q184 268 184 232Q184 196 184 172Q200 174 225 176Q250 178 284 178Q318 178 343 176Q368 174 384 172Q356 146 314 113Q272 80 216 47Q160 14 118 -5Q76 -24 48 -36Q54 -42 63 -51Q72 -60 83 -72Q94 -84 101 -93Q108 -102 112 -108Q142 -98 186 -79Q230 -60 287 -21Q344 18 386 59Q428 100 456 132Q456 108 456 73Q456 38 455 -8Q454 -54 452 -89Q450 -124 448 -148H552Q550 -126 548 -93Q546 -60 545 -15Q544 30 544 65Q544 100 544 124Q572 92 614 51Q656 10 712 -27Q768 -64 810 -79Q852 -94 880 -100Q886 -94 895 -84Q904 -74 916 -60Q928 -46 937 -36Q946 -26 952 -20Q924 -14 881 -2Q838 10 779 40Q720 70 675 106Q630 142 600 172Q618 174 644 176Q670 178 704 178Q738 178 764 176Q790 174 808 172Q808 204 808 252Q808 300 808 363Q808 426 808 472Q808 518 808 548Q786 548 753 548Q720 548 676 548Q632 548 599 548Q566 548 544 548V604H632Q660 604 701 604Q742 604 795 603Q848 602 887 600Q926 598 952 596V692Q926 692 887 691Q848 690 796 688Q744 686 705 685Q666 684 640 684H544Q542 692 542 704Q542 716 546 732Q550 748 554 760Q558 772 560 780Q550 784 536 788Q522 792 504 793Q486 794 472 792Q458 790 448 788Q448 780 449 769Q450 758 452 745Q454 732 455 723Q456 714 456 708V684H344V684V685V684Z" /></g></g><g transform="translate(9728,0)"><g transform="scale(1,-1) translate(0,-820)"><path stroke="none" fill="#000000" d="M200 732Q188 732 169 732Q150 732 124 732Q98 732 79 732Q60 732 48 732V644Q60 646 77 648Q94 650 116 651Q138 652 155 652Q172 652 184 652H296L288 596H384L376 652H536V596H632L624 652H712Q728 652 753 652Q778 652 812 651Q846 650 871 648Q896 646 912 644V732Q898 732 877 732Q856 732 828 732Q800 732 779 732Q758 732 744 732H624Q626 736 628 741Q630 746 632 752Q634 758 636 763Q638 768 640 772L648 788Q638 792 623 797Q608 802 587 805Q566 808 549 807Q532 806 520 804Q522 798 524 789Q526 780 528 769Q530 758 532 751Q534 744 536 740V732H376Q378 736 379 743Q380 750 382 760Q384 770 389 777Q394 784 400 788Q390 794 375 800Q360 806 340 808Q320 810 305 808Q290 806 280 804Q280 800 281 793Q282 786 285 775Q288 764 291 755Q294 746 296 740V732H200V732ZM200 508Q190 492 173 473Q156 454 131 436Q106 418 87 407Q68 396 56 388Q62 382 70 373Q78 364 88 352Q98 340 106 331Q114 322 120 316Q136 324 161 342Q186 360 218 392Q250 424 271 450Q292 476 304 492Q314 492 329 492Q344 492 364 492Q384 492 399 492Q414 492 424 492L384 468Q392 456 405 440Q418 424 438 406Q458 388 475 376Q492 364 504 356Q510 364 519 373Q528 382 540 390Q552 398 561 403Q570 408 576 412Q568 418 556 427Q544 436 528 449Q512 462 500 473Q488 484 480 492Q496 494 521 496Q546 498 580 500Q614 502 639 504Q664 506 680 508L648 460Q664 442 688 420Q712 398 744 376Q776 354 800 340Q824 326 840 316Q844 322 851 332Q858 342 870 356Q882 370 893 380Q904 390 912 396Q894 400 868 409Q842 418 808 437Q774 456 748 475Q722 494 704 508Q714 510 728 512Q742 514 760 515Q778 516 792 516Q806 516 816 516Q812 524 804 536Q796 548 782 564Q768 580 756 592Q744 604 736 612Q712 600 677 589Q642 578 596 573Q550 568 515 567Q480 566 456 564H320Q314 562 305 563Q296 564 284 570Q272 576 263 581Q254 586 248 588Q244 582 239 572Q234 562 227 548Q220 534 213 524Q206 514 200 508V508V508ZM240 252Q224 252 199 252Q174 252 140 252Q106 252 81 252Q56 252 40 252V164Q54 164 76 165Q98 166 128 168Q158 170 180 171Q202 172 216 172H376Q350 142 310 107Q270 72 215 42Q160 12 118 -3Q76 -18 48 -28Q56 -34 67 -43Q78 -52 90 -65Q102 -78 109 -89Q116 -100 120 -108Q146 -98 184 -81Q222 -64 272 -32Q322 0 360 33Q398 66 424 92Q424 72 423 42Q422 12 420 -28Q418 -68 417 -98Q416 -128 416 -148H520Q520 -128 519 -97Q518 -66 516 -23Q514 20 513 53Q512 86 512 108Q544 78 592 41Q640 4 705 -30Q770 -64 820 -81Q870 -98 904 -108Q906 -100 910 -88Q914 -76 923 -61Q932 -46 942 -36Q952 -26 960 -20Q926 -12 876 1Q826 14 761 43Q696 72 648 107Q600 142 568 172H728Q744 172 768 171Q792 170 824 168Q856 166 880 165Q904 164 920 164V252Q902 252 875 252Q848 252 812 252Q776 252 749 252Q722 252 704 252H512Q512 256 512 263Q512 270 515 280Q518 290 524 297Q530 304 536 308Q526 314 511 320Q496 326 476 329Q456 332 441 332Q426 332 416 332Q416 326 417 317Q418 308 420 297Q422 286 423 279Q424 272 424 268V252H240V252V253V252Z" /></g></g></g></svg>
