<?xml version="1.0" encoding="utf-8"?><!DOCTYPE svg PUBLIC "-//W3C//DTD SVG 1.1//EN" "http://www.w3.org/Graphics/SVG/1.1/DTD/svg11.dtd"><svg version="1.1" xmlns="http://www.w3.org/2000/svg" width="1216" height="128" viewBox="0 0 1216 128"><g transform="scale(0.125,0.125)"><g><rect fill="#D1D5DA" width="9728" height="1024" /></g><g transform="translate(0,0)"><g transform="scale(1,-1) translate(0,-820)"><path stroke="none" fill="#000000" d="M256 772Q248 736 230 682Q212 628 174 556Q136 484 98 430Q60 376 32 340Q36 334 42 325Q48 316 56 304Q64 292 70 283Q76 274 80 268Q90 278 104 294Q118 310 134 332Q150 354 160 370Q170 386 176 396V276Q176 274 176 270Q176 266 176 259Q176 252 176 246Q176 240 176 236V60Q176 42 175 15Q174 -12 171 -48Q168 -84 165 -111Q162 -138 160 -156H264Q260 -112 256 -46Q252 20 250 108Q248 196 248 262Q248 328 248 372V524Q248 526 248 529Q248 532 249 537Q250 542 252 547Q254 552 256 556Q266 568 276 589Q286 610 298 638Q310 666 324 683Q338 700 352 708Q346 716 335 727Q324 738 307 749Q290 760 277 765Q264 770 256 772V772V772ZM584 540V580H672V540H584V540ZM448 316V372H576V308L448 316V316ZM656 316V372H800V316H656V316ZM504 644Q488 644 465 645Q442 646 412 648Q382 650 359 651Q336 652 320 652V572Q336 574 359 576Q382 578 412 579Q442 580 465 580Q488 580 504 580V476H576V436Q558 436 532 436Q506 436 473 437Q440 438 416 440Q392 442 376 444V332V244Q392 244 416 244Q440 244 473 244Q506 244 532 244Q558 244 576 244V188Q560 188 535 188Q510 188 476 189Q442 190 417 192Q392 194 376 196V116Q392 118 417 120Q442 122 476 123Q510 124 535 124Q560 124 576 124V76Q562 76 541 76Q520 76 492 77Q464 78 443 80Q422 82 408 84V4Q422 4 443 5Q464 6 492 8Q520 10 541 11Q562 12 576 12V-44Q556 -44 526 -44Q496 -44 456 -44Q416 -44 386 -44Q356 -44 336 -44V-124Q386 -122 460 -120Q534 -118 632 -118Q730 -118 804 -120Q878 -122 928 -124V-36Q914 -38 893 -40Q872 -42 843 -43Q814 -44 791 -44Q768 -44 752 -44H656V12Q672 12 695 12Q718 12 748 11Q778 10 801 8Q824 6 840 4V84Q824 82 801 80Q778 78 748 77Q718 76 695 76Q672 76 656 76V124H752Q762 124 777 123Q792 122 812 120Q832 118 847 117Q862 116 872 116V196Q862 196 847 195Q832 194 811 192Q790 190 773 189Q756 188 744 188H656V244Q674 244 701 244Q728 244 764 243Q800 242 827 240Q854 238 872 236Q872 254 872 280Q872 306 872 340Q872 374 872 400Q872 426 872 444Q854 442 827 440Q800 438 764 437Q728 436 701 436Q674 436 656 436V484H768V580Q784 580 808 580Q832 580 863 579Q894 578 916 576Q938 574 952 572V660Q938 658 916 655Q894 652 863 649Q832 646 808 645Q784 644 768 644Q768 652 768 664Q768 676 769 692Q770 708 772 720Q774 732 776 740L792 748Q782 756 766 764Q750 772 728 776Q706 780 690 780Q674 780 664 780Q666 774 668 765Q670 756 671 744Q672 732 672 723Q672 714 672 708V644H584Q586 652 586 664Q586 676 587 692Q588 708 594 720Q600 732 608 740Q598 744 583 749Q568 754 549 757Q530 760 517 759Q504 758 496 756Q496 750 497 742Q498 734 500 724Q502 714 503 706Q504 698 504 692V644V644V645V644Z" /></g></g><g transform="translate(1024,0)"><g transform="scale(1,-1) translate(0,-820)"><path stroke="none" fill="#000000" d="M560 356V444H680V324L672 260H568Q566 268 564 280Q562 292 561 308Q560 324 560 336Q560 348 560 356V356V356ZM472 532Q460 532 442 533Q424 534 399 536Q374 538 354 539Q334 540 320 540V444Q334 444 354 445Q374 446 399 447Q424 448 442 447Q460 446 472 444V340Q472 334 472 324Q472 314 472 300Q472 286 472 276Q472 266 472 260Q458 260 437 260Q416 260 387 261Q358 262 335 264Q312 266 296 268V172Q354 176 440 180Q526 184 639 184Q752 184 836 180Q920 176 976 172V268Q958 268 932 267Q906 266 872 264Q838 262 812 261Q786 260 768 260Q768 268 768 281Q768 294 768 312Q768 330 768 343Q768 356 768 364V444Q782 444 803 444Q824 444 852 444Q880 444 901 444Q922 444 936 444V548Q922 546 901 544Q880 542 852 540Q824 538 803 536Q782 534 768 532Q768 552 766 582Q764 612 764 652Q764 692 770 722Q776 752 784 772Q776 774 763 776Q750 778 731 778Q712 778 697 776Q682 774 672 772Q674 764 676 753Q678 742 679 728Q680 714 680 703Q680 692 680 684V604V532H560Q562 552 561 582Q560 612 559 651Q558 690 563 718Q568 746 576 764Q566 766 552 768Q538 770 520 770Q502 770 488 768Q474 766 464 764Q466 752 468 734Q470 716 471 691Q472 666 472 646Q472 626 472 612V532V532ZM504 148Q492 130 470 103Q448 76 414 46Q380 16 354 1Q328 -14 312 -20Q318 -26 327 -35Q336 -44 347 -56Q358 -68 365 -77Q372 -86 376 -92Q394 -82 420 -63Q446 -44 479 -13Q512 18 536 43Q560 68 576 84Q572 92 564 103Q556 114 543 125Q530 136 520 141Q510 146 504 148V148V148ZM648 92Q668 72 700 46Q732 20 777 -9Q822 -38 856 -58Q890 -78 912 -92Q916 -84 923 -72Q930 -60 941 -45Q952 -30 961 -20Q970 -10 976 -4Q954 4 921 17Q888 30 845 56Q802 82 771 111Q740 140 720 164Q712 160 702 152Q692 144 681 132Q670 120 662 112Q654 104 648 100V92V92ZM376 740Q368 748 355 757Q342 766 324 773Q306 780 293 783Q280 786 272 788Q264 752 244 698Q224 644 181 572Q138 500 96 446Q54 392 24 356Q30 350 39 341Q48 332 59 319Q70 306 77 295Q84 284 88 276Q96 288 108 305Q120 322 136 344Q152 366 164 383Q176 400 184 412V252Q184 218 183 168Q182 118 178 53Q174 -12 169 -60Q164 -108 160 -140H280Q278 -96 275 -30Q272 36 269 124Q266 212 265 278Q264 344 264 388V516Q264 518 264 520Q264 522 264 523Q264 524 268 533Q272 542 283 569Q294 596 311 632Q328 668 345 695Q362 722 376 740V740V740V741V740Z" /></g></g><g transform="translate(2048,0)"><g transform="scale(1,-1) translate(0,-820)"><path stroke="none" fill="#000000" d="M640 564Q640 576 640 593Q640 610 640 631Q640 652 640 667Q640 682 640 692Q654 694 674 696Q694 698 720 698Q746 698 766 696Q786 694 800 692Q800 682 799 667Q798 652 796 632Q794 612 793 597Q792 582 792 572Q780 570 762 568Q744 566 719 565Q694 564 674 564Q654 564 640 564V564V564ZM672 228Q674 236 676 248Q678 260 679 275Q680 290 680 300Q680 310 680 316Q688 316 700 316Q712 316 729 316Q746 316 760 316Q774 316 784 316V228Q774 228 760 228Q746 228 728 228Q710 228 696 228Q682 228 672 228V228V228ZM176 204Q182 226 190 260Q198 294 208 340Q218 386 226 420Q234 454 240 476H296Q294 450 290 412Q286 374 277 325Q268 276 258 240Q248 204 240 180Q236 182 229 185Q222 188 211 192Q200 196 191 199Q182 202 176 204V204V204ZM160 572Q148 572 131 572Q114 572 93 572Q72 572 57 572Q42 572 32 572V468Q42 468 56 469Q70 470 88 472Q106 474 120 475Q134 476 144 476Q140 446 132 401Q124 356 109 295Q94 234 80 187Q66 140 56 108Q64 108 75 107Q86 106 99 102Q112 98 121 93Q130 88 136 84Q138 86 140 90Q142 94 144 101Q146 108 148 114Q150 120 152 124Q156 122 163 119Q170 116 180 112Q190 108 197 105Q204 102 208 100Q200 84 184 61Q168 38 140 12Q112 -14 88 -29Q64 -44 48 -52Q54 -58 63 -67Q72 -76 84 -88Q96 -100 105 -109Q114 -118 120 -124Q136 -114 160 -95Q184 -76 212 -45Q240 -14 256 11Q272 36 280 52Q284 46 291 38Q298 30 308 20Q318 10 325 2Q332 -6 336 -12Q342 -6 351 3Q360 12 372 23Q384 34 393 41Q402 48 408 52Q400 60 389 72Q378 84 364 99Q350 114 339 124Q328 134 320 140Q328 166 337 206Q346 246 353 301Q360 356 363 398Q366 440 368 468V572Q358 572 343 571Q328 570 308 568Q288 566 273 565Q258 564 248 564Q252 582 255 608Q258 634 263 668Q268 702 277 728Q286 754 296 772Q286 778 271 784Q256 790 236 792Q216 794 201 792Q186 790 176 788Q176 770 175 743Q174 716 171 680Q168 644 165 617Q162 590 160 572V572V572ZM888 764Q860 764 818 764Q776 764 720 764Q664 764 622 764Q580 764 552 764Q552 740 552 703Q552 666 551 615Q550 564 548 525Q546 486 544 460H648V492H792V460H888Q886 486 885 524Q884 562 885 612Q886 662 887 700Q888 738 888 764V764V764ZM408 428V284H496V316Q504 316 516 316Q528 316 544 316Q560 316 572 316Q584 316 592 316Q592 310 592 300Q592 290 591 275Q590 260 588 248Q586 236 584 228Q566 228 539 228Q512 228 475 229Q438 230 409 232Q380 234 360 236V132Q378 134 404 136Q430 138 464 139Q498 140 524 140Q550 140 568 140Q566 132 562 121Q558 110 549 96Q540 82 530 71Q520 60 512 52Q494 34 466 13Q438 -8 400 -27Q362 -46 334 -57Q306 -68 288 -76Q294 -80 303 -87Q312 -94 324 -105Q336 -116 345 -125Q354 -134 360 -140Q374 -132 395 -122Q416 -112 445 -98Q474 -84 497 -70Q520 -56 536 -44Q548 -34 563 -18Q578 -2 593 20Q608 42 617 58Q626 74 632 84Q648 60 677 25Q706 -10 751 -49Q796 -88 831 -109Q866 -130 888 -140Q894 -132 903 -120Q912 -108 925 -93Q938 -78 949 -68Q960 -58 968 -52Q946 -44 911 -29Q876 -14 829 17Q782 48 749 81Q716 114 696 140Q720 140 755 140Q790 140 836 139Q882 138 917 136Q952 134 976 132V244Q966 242 952 240Q938 238 920 237Q902 236 888 236Q874 236 864 236Q864 250 864 271Q864 292 864 321Q864 350 864 373Q864 396 864 412Q842 410 809 408Q776 406 732 405Q688 404 655 404Q622 404 600 404H496Q496 430 494 468Q492 506 491 555Q490 604 494 640Q498 676 504 700Q494 702 479 705Q464 708 445 710Q426 712 413 711Q400 710 392 708Q398 684 403 648Q408 612 409 565Q410 518 409 484Q408 450 408 428V428V428V429V428Z" /></g></g><g transform="translate(3072,0)"><g transform="scale(1,-1) translate(0,-820)"><path stroke="none" fill="#000000" d="M448 516V604H568V516H448V516ZM448 356V436H568V356H448V356ZM800 756Q794 744 784 727Q774 710 760 688Q746 666 736 649Q726 632 720 620Q718 622 714 625Q710 628 704 632Q698 636 694 639Q690 642 688 644L656 580Q666 574 681 564Q696 554 717 538Q738 522 755 508Q772 494 784 484Q776 478 764 468Q752 458 737 444Q722 430 712 420Q702 410 696 404Q692 404 686 404Q680 404 673 404Q666 404 662 404Q658 404 656 404Q658 396 660 384Q662 372 666 356Q670 340 676 328Q682 316 688 308Q704 314 729 320Q754 326 789 330Q824 334 851 336Q878 338 896 340Q896 336 897 329Q898 322 900 312Q902 302 903 295Q904 288 904 284Q912 286 923 289Q934 292 948 296Q962 300 973 303Q984 306 992 308Q988 320 983 338Q978 356 971 380Q964 404 957 422Q950 440 944 452L880 436Q880 434 881 430Q882 426 884 420Q886 414 887 410Q888 406 888 404Q880 404 868 403Q856 402 841 400Q826 398 816 397Q806 396 800 396Q812 412 833 438Q854 464 887 496Q920 528 947 546Q974 564 992 572Q988 580 979 592Q970 604 954 618Q938 632 925 640Q912 648 904 652Q900 642 892 628Q884 614 871 596Q858 578 848 564Q838 550 832 540Q826 546 818 554Q810 562 801 570Q792 578 786 582Q780 586 776 588Q784 598 796 614Q808 630 826 650Q844 670 860 682Q876 694 888 700Q882 708 871 718Q860 728 844 737Q828 746 817 750Q806 754 800 756V756V756ZM200 772Q196 760 187 742Q178 724 162 699Q146 674 133 654Q120 634 112 620Q106 624 98 629Q90 634 81 638Q72 642 66 643Q60 644 56 644L24 588Q36 582 54 571Q72 560 96 541Q120 522 138 505Q156 488 168 476Q162 468 153 457Q144 446 131 432Q118 418 107 407Q96 396 88 388Q82 388 73 388Q64 388 52 388Q40 388 31 388Q22 388 16 388Q18 380 20 367Q22 354 25 336Q28 318 32 305Q36 292 40 284Q58 290 85 297Q112 304 148 310Q184 316 211 319Q238 322 256 324Q256 320 257 314Q258 308 260 300Q262 292 263 286Q264 280 264 276Q270 278 280 281Q290 284 304 289Q318 294 328 299Q338 304 344 308Q342 318 338 334Q334 350 325 372Q316 394 306 410Q296 426 288 436L240 420Q240 418 240 414Q240 410 241 404Q242 398 244 394Q246 390 248 388Q242 388 233 388Q224 388 213 388Q202 388 195 388Q188 388 184 388Q198 402 219 425Q240 448 269 477Q298 506 321 523Q344 540 360 548Q356 556 348 567Q340 578 326 589Q312 600 300 605Q288 610 280 612Q274 606 267 597Q260 588 253 576Q246 564 241 555Q236 546 232 540Q226 544 218 550Q210 556 200 564Q190 572 182 578Q174 584 168 588Q178 598 192 617Q206 636 225 661Q244 686 260 699Q276 712 288 716Q286 722 280 730Q274 738 262 747Q250 756 240 762Q230 768 224 772H200V772ZM456 676Q448 676 436 676Q424 676 409 677Q394 678 384 680Q374 682 368 684V540V284Q376 286 387 288Q398 290 412 291Q426 292 437 292Q448 292 456 292V212Q420 212 366 213Q312 214 240 218Q168 222 114 227Q60 232 24 236V124Q54 126 99 128Q144 130 204 131Q264 132 309 132Q354 132 384 132Q380 130 375 127Q370 124 363 119Q356 114 349 109Q342 104 336 100Q310 78 272 53Q234 28 184 6Q134 -16 96 -29Q58 -42 32 -52Q38 -58 47 -67Q56 -76 68 -89Q80 -102 89 -113Q98 -124 104 -132Q108 -130 114 -127Q120 -124 128 -120Q136 -116 142 -113Q148 -110 152 -108Q178 -96 216 -76Q254 -56 304 -24Q354 8 392 36Q430 64 456 84Q458 66 459 38Q460 10 458 -29Q456 -68 453 -98Q450 -128 448 -148H560Q560 -128 559 -97Q558 -66 556 -24Q554 18 553 49Q552 80 552 100Q580 78 623 45Q666 12 724 -28Q782 -68 825 -93Q868 -118 896 -132Q904 -122 915 -108Q926 -94 941 -78Q956 -62 969 -52Q982 -42 992 -36Q986 -34 977 -31Q968 -28 956 -24Q944 -20 935 -17Q926 -14 920 -12Q896 -6 859 7Q822 20 772 45Q722 70 685 93Q648 116 624 132H752Q770 132 797 132Q824 132 859 131Q894 130 919 128Q944 126 960 124V228Q926 226 875 223Q824 220 756 217Q688 214 637 213Q586 212 552 212V292Q560 292 572 292Q584 292 601 291Q618 290 632 288Q646 286 656 284Q654 318 652 368Q650 418 650 484Q650 550 652 600Q654 650 656 684Q644 682 627 680Q610 678 589 677Q568 676 553 676Q538 676 528 676Q530 684 533 697Q536 710 544 726Q552 742 563 751Q574 760 584 764L568 780Q560 784 548 788Q536 792 519 793Q502 794 488 792Q474 790 464 788Q464 778 464 764Q464 750 463 732Q462 714 460 700Q458 686 456 676V676V676V677V676Z" /></g></g><g transform="translate(4096,0)"><g transform="scale(1,-1) translate(0,-820)"><path stroke="none" fill="#000000" d="" /></g></g><g transform="translate(4608,0)"><g transform="scale(1,-1) translate(0,-820)"><path stroke="none" fill="#000000" d="M320 436V564H368V436H320V436ZM456 436V564H512V436H456V436ZM592 436V564H656V436H592V436ZM600 228Q600 238 599 253Q598 268 596 288Q594 308 593 323Q592 338 592 348H656Q656 338 656 323Q656 308 656 288Q656 268 656 253Q656 238 656 228H600V228ZM456 228Q456 238 456 253Q456 268 456 288Q456 308 456 323Q456 338 456 348H512Q512 338 512 323Q512 308 512 288Q512 268 512 253Q512 238 512 228H456V228ZM320 228Q320 238 320 253Q320 268 320 288Q320 308 320 323Q320 338 320 348H368Q368 338 368 323Q368 308 368 288Q368 268 368 253Q368 238 368 228H320V228ZM128 452Q138 462 152 476Q166 490 183 508Q200 526 212 540Q224 554 232 564V436Q218 436 197 436Q176 436 148 437Q120 438 99 440Q78 442 64 444V348Q78 348 99 348Q120 348 148 348Q176 348 197 348Q218 348 232 348Q232 338 232 323Q232 308 232 288Q232 268 232 253Q232 238 232 228Q218 228 198 229Q178 230 153 232Q128 234 110 235Q92 236 80 236V132Q150 134 255 136Q360 138 500 138Q640 138 745 136Q850 134 920 132V236Q906 236 884 235Q862 234 832 232Q802 230 780 229Q758 228 744 228Q744 238 744 253Q744 268 744 288Q744 308 744 323Q744 338 744 348Q760 348 784 348Q808 348 840 348Q872 348 896 348Q920 348 936 348V444Q920 444 896 443Q872 442 840 440Q808 438 784 437Q760 436 744 436Q744 446 744 462Q744 478 744 500Q744 522 744 538Q744 554 744 564Q752 564 765 564Q778 564 797 564Q816 564 831 564Q846 564 856 564V660Q830 660 791 659Q752 658 700 656Q648 654 609 653Q570 652 544 652H416Q406 652 391 652Q376 652 356 652Q336 652 321 652Q306 652 296 652Q300 660 306 671Q312 682 322 696Q332 710 342 721Q352 732 360 740Q352 746 340 754Q328 762 311 768Q294 774 280 774Q266 774 256 772Q254 766 250 757Q246 748 239 736Q232 724 226 715Q220 706 216 700Q206 682 188 657Q170 632 140 601Q110 570 84 547Q58 524 40 508Q48 504 60 498Q72 492 87 483Q102 474 112 466Q122 458 128 452V452V452ZM64 -60Q74 -64 88 -71Q102 -78 119 -88Q136 -98 148 -105Q160 -112 168 -116Q180 -100 196 -76Q212 -52 230 -21Q248 10 260 32Q272 54 280 68Q274 74 264 81Q254 88 239 94Q224 100 212 103Q200 106 192 108Q186 94 175 72Q164 50 143 21Q122 -8 101 -28Q80 -48 64 -60V-60V-60ZM448 76Q440 76 429 76Q418 76 405 76Q392 76 383 76Q374 76 368 76Q368 62 367 40Q366 18 362 -12Q358 -42 353 -64Q348 -86 344 -100H456V-12Q456 -6 455 4Q454 14 452 29Q450 44 449 56Q448 68 448 76V76V76ZM616 92L544 76Q550 60 557 36Q564 12 570 -20Q576 -52 579 -76Q582 -100 584 -116Q592 -114 605 -111Q618 -108 636 -104Q654 -100 667 -97Q680 -94 688 -92Q684 -76 677 -53Q670 -30 658 0Q646 30 635 53Q624 76 616 92V92V92ZM800 108L736 76Q744 62 757 40Q770 18 790 -13Q810 -44 827 -68Q844 -92 856 -108Q864 -104 875 -98Q886 -92 900 -83Q914 -74 925 -66Q936 -58 944 -52Q932 -38 913 -18Q894 2 869 28Q844 54 827 74Q810 94 800 108V108V108V109V108Z" /></g></g><g transform="translate(5632,0)"><g transform="scale(1,-1) translate(0,-820)"><path stroke="none" fill="#000000" d="M664 508Q658 504 649 498Q640 492 628 483Q616 474 607 466Q598 458 592 452Q622 426 664 384Q706 342 753 283Q800 224 828 180Q856 136 872 108Q882 112 896 119Q910 126 927 137Q944 148 956 157Q968 166 976 172Q956 200 922 244Q888 288 835 346Q782 404 738 444Q694 484 664 508V508V508ZM936 740Q862 738 752 736Q642 734 496 734Q350 734 240 736Q130 738 56 740V620Q88 620 136 621Q184 622 249 624Q314 626 364 627Q414 628 448 628Q426 590 381 530Q336 470 260 397Q184 324 123 282Q62 240 24 220Q32 214 43 205Q54 196 68 184Q82 172 93 163Q104 154 112 148Q138 164 180 192Q222 220 279 267Q336 314 376 356Q416 398 440 428Q440 424 440 419Q440 414 440 409Q440 404 440 401Q440 398 440 396V372Q440 334 439 276Q438 218 435 140Q432 62 429 4Q426 -54 424 -92H552Q552 -78 551 -57Q550 -36 548 -9Q546 18 545 37Q544 56 544 68Q544 102 541 153Q538 204 536 272Q534 340 539 391Q544 442 552 476Q548 480 541 484Q534 488 523 491Q512 494 503 496Q494 498 488 500Q496 512 507 529Q518 546 531 567Q544 588 553 603Q562 618 568 628Q598 628 644 628Q690 628 752 627Q814 626 860 624Q906 622 936 620V740V740V741V740Z" /></g></g><g transform="translate(6656,0)"><g transform="scale(1,-1) translate(0,-820)"><path stroke="none" fill="#000000" d="M288 492V580H664V492H288V492ZM288 332V420H664V332H288V332ZM336 652Q324 652 306 652Q288 652 264 653Q240 654 222 656Q204 658 192 660L208 324L192 4Q180 0 162 -4Q144 -8 120 -10Q96 -12 78 -12Q60 -12 48 -12Q48 -22 49 -38Q50 -54 57 -76Q64 -98 75 -114Q86 -130 96 -140Q130 -122 180 -104Q230 -86 295 -71Q360 -56 408 -44Q456 -32 488 -20L496 68Q480 64 455 58Q430 52 396 44Q362 36 337 30Q312 24 296 20Q294 40 292 70Q290 100 289 140Q288 180 288 210Q288 240 288 260H400Q402 256 406 249Q410 242 416 231Q422 220 426 211Q430 202 432 196Q452 154 497 97Q542 40 620 -17Q698 -74 759 -101Q820 -128 856 -140Q862 -130 873 -116Q884 -102 902 -84Q920 -66 935 -52Q950 -38 960 -28Q930 -26 886 -21Q842 -16 784 2Q726 20 682 45Q638 70 608 92Q630 100 664 112Q698 124 744 139Q790 154 824 164Q858 174 880 180Q876 188 866 200Q856 212 838 228Q820 244 806 256Q792 268 784 276Q766 256 738 234Q710 212 671 195Q632 178 602 170Q572 162 552 156Q546 164 538 177Q530 190 521 208Q512 226 506 239Q500 252 496 260H760Q758 292 756 341Q754 390 754 457Q754 524 756 575Q758 626 760 660Q740 658 711 656Q682 654 645 653Q608 652 581 652Q554 652 536 652Q536 662 534 676Q532 690 533 708Q534 726 542 740Q550 754 560 764Q548 772 531 780Q514 788 492 792Q470 796 453 796Q436 796 424 796Q426 792 428 786Q430 780 432 772Q434 764 436 758Q438 752 440 748Q440 740 440 728Q440 716 440 700Q440 684 440 672Q440 660 440 652H336V652V653V652Z" /></g></g><g transform="translate(7680,0)"><g transform="scale(1,-1) translate(0,-820)"><path stroke="none" fill="#000000" d="M880 764Q870 766 855 768Q840 770 819 770Q798 770 781 768Q764 766 752 764Q752 760 753 754Q754 748 756 740Q758 732 759 726Q760 720 760 716V700Q760 698 761 695Q762 692 764 688Q766 684 767 681Q768 678 768 676V660V652V636V620V612V596V580V572Q768 570 768 566Q768 562 768 556Q768 550 768 546Q768 542 768 540V532Q768 530 768 527Q768 524 768 519Q768 514 768 509Q768 504 768 500V492Q768 488 768 482Q768 476 768 469Q768 462 768 458Q768 454 768 452V436Q768 430 768 421Q768 412 768 399Q768 386 768 375Q768 364 768 356L776 348Q776 308 775 249Q774 190 771 113Q768 36 765 -21Q762 -78 760 -116H888Q886 -84 883 -37Q880 10 877 72Q874 134 873 181Q872 228 872 260Q872 302 869 365Q866 428 864 512Q862 596 867 659Q872 722 880 764V764V764ZM504 764Q470 762 419 761Q368 760 301 761Q234 762 185 763Q136 764 104 764V660Q128 660 165 661Q202 662 253 663Q304 664 343 663Q382 662 408 660V540H152L72 204H176L192 252H424Q424 250 424 246Q424 242 424 236Q424 230 424 226Q424 222 424 220Q424 206 424 184Q424 162 421 132Q418 102 412 80Q406 58 400 44Q390 12 363 -14Q336 -40 287 -41Q238 -42 201 -30Q164 -18 144 -12Q148 -22 153 -37Q158 -52 162 -72Q166 -92 167 -107Q168 -122 168 -132Q192 -132 230 -138Q268 -144 319 -142Q370 -140 406 -118Q442 -96 464 -68Q478 -34 492 17Q506 68 513 136Q520 204 520 255Q520 306 520 340H200L224 460H504V764V764V765V764Z" /></g></g><g transform="translate(8704,0)"><g transform="scale(1,-1) translate(0,-820)"><path stroke="none" fill="#000000" d="M464 500V540Q492 542 534 544Q576 546 632 546Q688 546 730 544Q772 542 800 540V500Q772 500 730 500Q688 500 632 500Q576 500 534 500Q492 500 464 500V500V500ZM464 404V444Q492 444 534 444Q576 444 632 444Q688 444 730 444Q772 444 800 444V404Q772 404 730 404Q688 404 632 404Q576 404 534 404Q492 404 464 404V404V404ZM464 324V356Q492 356 534 356Q576 356 632 356Q688 356 730 356Q772 356 800 356V324Q772 322 730 320Q688 318 632 318Q576 318 534 320Q492 322 464 324V324V324ZM184 780L136 724Q146 720 160 711Q174 702 192 685Q210 668 224 653Q238 638 248 628L296 676Q288 688 275 705Q262 722 243 740Q224 758 209 767Q194 776 184 780V780V780ZM96 620L48 564Q58 560 73 552Q88 544 107 530Q126 516 139 504Q152 492 160 484L208 540Q200 550 187 564Q174 578 155 592Q136 606 121 612Q106 618 96 620V620V620ZM504 708Q490 708 468 708Q446 708 416 709Q386 710 364 712Q342 714 328 716V636Q348 636 378 637Q408 638 449 639Q490 640 522 639Q554 638 576 636L552 604Q538 602 516 601Q494 600 464 601Q434 602 412 603Q390 604 376 604V420V260Q418 260 482 260Q546 260 632 260Q718 260 782 260Q846 260 888 260Q888 288 888 331Q888 374 888 432Q888 490 888 533Q888 576 888 604Q874 604 853 604Q832 604 805 604Q778 604 759 604Q740 604 728 604H640L656 636H752Q768 636 792 636Q816 636 848 636Q880 636 904 636Q928 636 944 636V716Q926 714 900 712Q874 710 841 709Q808 708 784 708Q760 708 744 708Q748 714 754 724Q760 734 770 747Q780 760 790 768Q800 776 808 780Q798 788 783 796Q768 804 749 808Q730 812 717 812Q704 812 696 812Q696 804 694 791Q692 778 686 760Q680 742 674 729Q668 716 664 708H592Q588 716 582 729Q576 742 567 761Q558 780 550 795Q542 810 536 820L456 788Q462 780 470 769Q478 758 486 745Q494 732 498 723Q502 714 504 708V708V708ZM296 428Q276 426 246 425Q216 424 176 425Q136 426 106 427Q76 428 56 428V348Q68 350 87 352Q106 354 133 355Q160 356 181 356Q202 356 216 356Q216 350 217 340Q218 330 220 316Q222 302 223 292Q224 282 224 276Q210 266 189 253Q168 240 140 227Q112 214 91 207Q70 200 56 196Q58 190 62 181Q66 172 74 160Q82 148 90 139Q98 130 104 124Q116 132 134 145Q152 158 176 174Q200 190 218 199Q236 208 248 212Q252 210 258 207Q264 204 272 199Q280 194 286 189Q292 184 296 180Q330 164 380 151Q430 138 496 136Q562 134 612 137Q662 140 696 140V92H480Q444 92 389 93Q334 94 260 96Q186 98 131 99Q76 100 40 100V4Q68 4 109 6Q150 8 204 11Q258 14 299 14Q340 14 368 12Q374 0 382 -18Q390 -36 398 -60Q406 -84 410 -102Q414 -120 416 -132Q424 -128 435 -122Q446 -116 460 -109Q474 -102 485 -98Q496 -94 504 -92Q500 -84 494 -71Q488 -58 480 -40Q472 -22 466 -9Q460 4 456 12H696Q696 6 696 -3Q696 -12 696 -24Q696 -36 696 -45Q696 -54 696 -60L664 -84Q658 -84 649 -84Q640 -84 628 -84Q616 -84 607 -84Q598 -84 592 -84Q598 -90 606 -100Q614 -110 621 -124Q628 -138 630 -148Q632 -158 632 -164L728 -156L776 -124Q778 -112 780 -94Q782 -76 783 -53Q784 -30 784 -14Q784 2 784 12Q798 12 820 12Q842 12 872 11Q902 10 924 8Q946 6 960 4V100Q946 100 924 99Q902 98 872 96Q842 94 820 93Q798 92 784 92V140Q798 142 819 144Q840 146 869 147Q898 148 921 148Q944 148 960 148Q958 158 957 173Q956 188 958 208Q960 228 963 243Q966 258 968 268Q940 262 898 252Q856 242 799 231Q742 220 698 216Q654 212 624 212Q598 210 560 206Q522 202 472 203Q422 204 384 214Q346 224 320 236Q310 252 303 276Q296 300 296 332Q296 364 297 388Q298 412 296 428V428V428V429V428Z" /></g></g></g></svg>